name Run_300 01_newCOP3_v24.mot
datacolumns 19
datarows 135
range 4.03 4.164
DataType=double
version=3
OpenSimVersion=4.3-2021-08-27-4bc7ad9
endheader
time	R_ground_force_vx	R_ground_force_vy	R_ground_force_vz	R_ground_force_px	R_ground_force_py	R_ground_force_pz	L_ground_force_vx	L_ground_force_vy	L_ground_force_vz	L_ground_force_px	L_ground_force_py	L_ground_force_pz	R_ground_torque_x	R_ground_torque_y	R_ground_torque_z	L_ground_torque_x	L_ground_torque_y	L_ground_torque_z
4.03	16.008509	30.281467	12.7665	0.411885	0	-0.228218	0	0	0	0	0	0	-0	0.953105	-0	0	0	0
4.031	14.231197	27.363638	12.122326	0.412438	0	-0.224744	0	0	0	0	0	0	-0	0.957078	-0	0	0	0
4.032	12.577982	24.685219	11.481649	0.413833	0	-0.220956	0	0	0	0	0	0	-0	0.960762	-0	0	0	0
4.033	11.04985	22.234509	10.846825	0.416202	0	-0.216837	0	0	0	0	0	0	-0	0.964104	-0	0	0	0
4.034	9.646414999999999	19.99958	10.22016	0.419678	0	-0.212373	0	0	0	0	0	0	-0	0.9670570000000001	-0	0	0	0
4.035	8.365919	17.968353	9.603904999999999	0.424393	0	-0.207554	0	0	0	0	0	0	-0	0.969577	-0	0	0	0
4.036	7.205292	16.128651	9.000227000000001	0.430474	0	-0.202375	0	0	0	0	0	0	-0	0.971624	-0	0	0	0
4.037	6.160253	14.468275	8.411194	0.438037	0	-0.196838	0	0	0	0	0	0	-0	0.973166	-0	0	0	0
4.038	5.225452	12.975089	7.838756	0.44718	0	-0.190951	0	0	0	0	0	0	-0	0.974173	-0	0	0	0
4.039	4.394649	11.637102	7.284728	0.457972	0	-0.184729	0	0	0	0	0	0	-0	0.974623	-0	0	0	0
4.04	3.660896	10.442545	6.750771	0.47045	0	-0.178193	0	0	0	0	0	0	-0	0.9745	-0	0	0	0
4.041	0	0	0	0	0	0	0	0	0	0	0	0	0	0	0	0	0	0
4.042	0	0	0	0	0	0	0	0	0	0	0	0	0	0	0	0	0	0
4.043	0	0	0	0	0	0	0	0	0	0	0	0	0	0	0	0	0	0
4.044	0	0	0	0	0	0	0	0	0	0	0	0	0	0	0	0	0	0
4.045	0	0	0	0	0	0	0	0	0	0	0	0	0	0	0	0	0	0
4.046	0	0	0	0	0	0	0	0	0	0	0	0	0	0	0	0	0	0
4.047	0	0	0	0	0	0	0	0	0	0	0	0	0	0	0	0	0	0
4.048	0	0	0	0	0	0	0	0	0	0	0	0	0	0	0	0	0	0
4.049	0	0	0	0	0	0	0	0	0	0	0	0	0	0	0	0	0	0
4.05	0	0	0	0	0	0	0	0	0	0	0	0	0	0	0	0	0	0
4.051	0	0	0	0	0	0	0	0	0	0	0	0	0	0	0	0	0	0
4.052	0	0	0	0	0	0	0	0	0	0	0	0	0	0	0	0	0	0
4.053	0	0	0	0	0	0	0	0	0	0	0	0	0	0	0	0	0	0
4.054	0	0	0	0	0	0	0	0	0	0	0	0	0	0	0	0	0	0
4.055	0	0	0	0	0	0	0	0	0	0	0	0	0	0	0	0	0	0
4.056	0	0	0	0	0	0	0	0	0	0	0	0	0	0	0	0	0	0
4.057	0	0	0	0	0	0	0	0	0	0	0	0	0	0	0	0	0	0
4.058	0	0	0	0	0	0	0	0	0	0	0	0	0	0	0	0	0	0
4.059	0	0	0	0	0	0	0	0	0	0	0	0	0	0	0	0	0	0
4.06	0	0	0	0	0	0	0	0	0	0	0	0	0	0	0	0	0	0
4.061	0	0	0	0	0	0	0	0	0	0	0	0	0	0	0	0	0	0
4.062	0	0	0	0	0	0	0	0	0	0	0	0	0	0	0	0	0	0
4.063	0	0	0	0	0	0	0	0	0	0	0	0	0	0	0	0	0	0
4.064	0	0	0	0	0	0	0	0	0	0	0	0	0	0	0	0	0	0
4.065	0	0	0	0	0	0	0	0	0	0	0	0	0	0	0	0	0	0
4.066	0	0	0	0	0	0	0	0	0	0	0	0	0	0	0	0	0	0
4.067	0	0	0	0	0	0	0	0	0	0	0	0	0	0	0	0	0	0
4.068	0	0	0	0	0	0	0	0	0	0	0	0	0	0	0	0	0	0
4.069	0	0	0	0	0	0	0	0	0	0	0	0	0	0	0	0	0	0
4.07	0	0	0	0	0	0	0	0	0	0	0	0	0	0	0	0	0	0
4.071	0	0	0	0	0	0	0	0	0	0	0	0	0	0	0	0	0	0
4.072	0	0	0	0	0	0	0	0	0	0	0	0	0	0	0	0	0	0
4.073	0	0	0	0	0	0	0	0	0	0	0	0	0	0	0	0	0	0
4.074	0	0	0	0	0	0	0	0	0	0	0	0	0	0	0	0	0	0
4.075	0	0	0	0	0	0	0	0	0	0	0	0	0	0	0	0	0	0
4.076	0	0	0	0	0	0	0	0	0	0	0	0	0	0	0	0	0	0
4.077	0	0	0	0	0	0	0	0	0	0	0	0	0	0	0	0	0	0
4.078	0	0	0	0	0	0	0	0	0	0	0	0	0	0	0	0	0	0
4.079	0	0	0	0	0	0	0	0	0	0	0	0	0	0	0	0	0	0
4.08	0	0	0	0	0	0	0	0	0	0	0	0	0	0	0	0	0	0
4.081	0	0	0	0	0	0	0	0	0	0	0	0	0	0	0	0	0	0
4.082	0	0	0	0	0	0	0	0	0	0	0	0	0	0	0	0	0	0
4.083	0	0	0	0	0	0	0	0	0	0	0	0	0	0	0	0	0	0
4.084	0	0	0	0	0	0	0	0	0	0	0	0	0	0	0	0	0	0
4.085	0	0	0	0	0	0	0	0	0	0	0	0	0	0	0	0	0	0
4.086	0	0	0	0	0	0	0	0	0	0	0	0	0	0	0	0	0	0
4.087	0	0	0	0	0	0	0	0	0	0	0	0	0	0	0	0	0	0
4.088	0	0	0	0	0	0	0	0	0	0	0	0	0	0	0	0	0	0
4.089	0	0	0	0	0	0	0	0	0	0	0	0	0	0	0	0	0	0
4.09	0	0	0	0	0	0	0	0	0	0	0	0	0	0	0	0	0	0
4.091	0	0	0	0	0	0	0	0	0	0	0	0	0	0	0	0	0	0
4.092	0	0	0	0	0	0	0	0	0	0	0	0	0	0	0	0	0	0
4.093	0	0	0	0	0	0	0	0	0	0	0	0	0	0	0	0	0	0
4.094	0	0	0	0	0	0	0	0	0	0	0	0	0	0	0	0	0	0
4.095	0	0	0	0	0	0	0	0	0	0	0	0	0	0	0	0	0	0
4.096	0	0	0	0	0	0	0	0	0	0	0	0	0	0	0	0	0	0
4.097	0	0	0	0	0	0	0	0	0	0	0	0	0	0	0	0	0	0
4.098	0	0	0	0	0	0	0	0	0	0	0	0	0	0	0	0	0	0
4.099	0	0	0	0	0	0	0	0	0	0	0	0	0	0	0	0	0	0
4.1	0	0	0	0	0	0	0	0	0	0	0	0	0	0	0	0	0	0
4.101	0	0	0	0	0	0	0	0	0	0	0	0	0	0	0	0	0	0
4.102	0	0	0	0	0	0	0	0	0	0	0	0	0	0	0	0	0	0
4.103	0	0	0	0	0	0	0	0	0	0	0	0	0	0	0	0	0	0
4.104	0	0	0	0	0	0	0	0	0	0	0	0	0	0	0	0	0	0
4.105	0	0	0	0	0	0	0	0	0	0	0	0	0	0	0	0	0	0
4.106	0	0	0	0	0	0	0	0	0	0	0	0	0	0	0	0	0	0
4.107	0	0	0	0	0	0	0	0	0	0	0	0	0	0	0	0	0	0
4.108	0	0	0	0	0	0	0	0	0	0	0	0	0	0	0	0	0	0
4.109	0	0	0	0	0	0	0	0	0	0	0	0	0	0	0	0	0	0
4.11	0	0	0	0	0	0	0	0	0	0	0	0	0	0	0	0	0	0
4.111	0	0	0	0	0	0	0	0	0	0	0	0	0	0	0	0	0	0
4.112	0	0	0	0	0	0	0	0	0	0	0	0	0	0	0	0	0	0
4.113	0	0	0	0	0	0	0	0	0	0	0	0	0	0	0	0	0	0
4.114	0	0	0	0	0	0	0	0	0	0	0	0	0	0	0	0	0	0
4.115	0	0	0	0	0	0	0	0	0	0	0	0	0	0	0	0	0	0
4.116	0	0	0	0	0	0	0	0	0	0	0	0	0	0	0	0	0	0
4.117	0	0	0	0	0	0	0	0	0	0	0	0	0	0	0	0	0	0
4.118	0	0	0	0	0	0	0	0	0	0	0	0	0	0	0	0	0	0
4.119	0	0	0	0	0	0	0	0	0	0	0	0	0	0	0	0	0	0
4.12	0	0	0	0	0	0	0	0	0	0	0	0	0	0	0	0	0	0
4.121	0	0	0	0	0	0	0	0	0	0	0	0	0	0	0	0	0	0
4.122	0	0	0	0	0	0	0	0	0	0	0	0	0	0	0	0	0	0
4.123	0	0	0	0	0	0	0	0	0	0	0	0	0	0	0	0	0	0
4.124	0	0	0	0	0	0	0	0	0	0	0	0	0	0	0	0	0	0
4.125	0	0	0	0	0	0	0	0	0	0	0	0	0	0	0	0	0	0
4.126	0	0	0	0	0	0	0	0	0	0	0	0	0	0	0	0	0	0
4.127	0	0	0	0	0	0	0	0	0	0	0	0	0	0	0	0	0	0
4.128	0	0	0	0	0	0	0	0	0	0	0	0	0	0	0	0	0	0
4.129	0	0	0	0	0	0	0	0	0	0	0	0	0	0	0	0	0	0
4.13	0	0	0	0	0	0	0	0	0	0	0	0	0	0	0	0	0	0
4.131	0	0	0	0	0	0	-7.664373	10.806094	0.313377	0.6765330000000001	0	-0.319326	0	0	0	-0	3.921973	-0
4.132	0	0	0	0	0	0	-8.569978000000001	12.354477	0.386532	0.699739	0	-0.331527	0	0	0	-0	3.866139	-0
4.133	0	0	0	0	0	0	-9.611112	14.165351	0.482959	0.720407	0	-0.342189	0	0	0	-0	3.800352	-0
4.134	0	0	0	0	0	0	-10.803308	16.275158	0.606145	0.738656	0	-0.351415	0	0	0	-0	3.724481	-0
4.135	0	0	0	0	0	0	-12.163025	18.723677	0.75987	0.7546659999999999	0	-0.359325	0	0	0	-0	3.638433	-0
4.136	0	0	0	0	0	0	-13.707511	21.554005	0.948202	0.768651	0	-0.366053	0	0	0	-0	3.54215	-0
4.137	0	0	0	0	0	0	-15.454634	24.812454	1.175485	0.780841	0	-0.371732	0	0	0	-0	3.435616	-0
4.138	0	0	0	0	0	0	-17.422617	28.548361	1.446327	0.791462	0	-0.376489	0	0	0	-0	3.318855	-0
4.139	0	0	0	0	0	0	-19.629726	32.813763	1.765566	0.8007300000000001	0	-0.380442	0	0	0	-0	3.191932	-0
4.14	0	0	0	0	0	0	-22.093872	37.662983	2.138238	0.808843	0	-0.383698	0	0	0	-0	3.054957	-0
4.141	0	0	0	0	0	0	-24.83214	43.152061	2.569525	0.815974	0	-0.38635	0	0	0	-0	2.908085	-0
4.142	0	0	0	0	0	0	-27.860252	49.338051	3.064694	0.822278	0	-0.38848	0	0	0	-0	2.751513	-0
4.143	0	0	0	0	0	0	-31.191967	56.278191	3.62903	0.827885	0	-0.390158	0	0	0	-0	2.585486	-0
4.144	0	0	0	0	0	0	-34.838425	64.02892300000001	4.267744	0.832906	0	-0.391447	0	0	0	-0	2.410296	-0
4.145	0	0	0	0	0	0	-38.807465	72.644814	4.985879	0.837435	0	-0.392396	0	0	0	-0	2.226278	-0
4.146	0	0	0	0	0	0	-43.102913	82.177322	5.788199	0.841546	0	-0.393051	0	0	0	-0	2.033815	-0
4.147	0	0	0	0	0	0	-47.723907	92.673569	6.679072	0.845303	0	-0.393449	0	0	0	-0	1.833335	-0
4.148	0	0	0	0	0	0	-52.664242	104.174995	7.662336	0.848753	0	-0.393622	0	0	0	-0	1.62531	-0
4.149	0	0	0	0	0	0	-57.911766	116.716095	8.741166	0.8519370000000001	0	-0.393599	0	0	0	-0	1.410255	-0
4.15	0	0	0	0	0	0	-63.447926	130.32312	9.91793	0.8548829999999999	0	-0.393403	0	0	0	-0	1.188729	-0
4.151	0	0	0	0	0	0	-69.24739099999999	145.013	11.194042	0.857615	0	-0.393055	0	0	0	-0	0.961328	-0
4.152	0	0	0	0	0	0	-75.277863	160.792419	12.569826	0.860147	0	-0.392575	0	0	0	-0	0.728689	-0
4.153	0	0	0	0	0	0	-81.500061	177.657059	14.04437	0.862489	0	-0.391978	0	0	0	-0	0.491483	-0
4.154	0	0	0	0	0	0	-87.86792800000001	195.591248	15.6154	0.864648	0	-0.39128	0	0	0	-0	0.250414	-0
4.155	0	0	0	0	0	0	-94.32901	214.567902	17.279167	0.866625	0	-0.390494	0	0	0	-0	0.006217	-0
4.156	0	0	0	0	0	0	-100.825111	234.548813	19.03035	0.868417	0	-0.389633	0	0	0	0	-0.240348	0
4.157	0	0	0	0	0	0	-107.293144	255.485397	20.861971	0.87002	0	-0.388709	0	0	0	0	-0.488497	0
4.158	0	0	0	0	0	0	-113.666176	277.319733	22.765366	0.871428	0	-0.387731	0	0	0	0	-0.737429	0
4.159	0	0	0	0	0	0	-119.874695	299.986115	24.73015	0.872632	0	-0.386711	0	0	0	0	-0.986325	0
4.16	0	0	0	0	0	0	-125.847992	323.41272	26.744257	0.87362	0	-0.385658	0	0	0	0	-1.234361	0
4.161	0	0	0	0	0	0	-131.515701	347.52359	28.793972	0.874383	0	-0.384581	0	0	0	0	-1.480702	0
4.162	0	0	0	0	0	0	-136.809402	372.240845	30.86405	0.874907	0	-0.383489	0	0	0	0	-1.724517	0
4.163	0	0	0	0	0	0	-141.664215	397.486786	32.937843	0.87518	0	-0.382389	0	0	0	0	-1.964976	0
4.164	0	0	0	0	0	0	-146.020386	423.185913	34.997486	0.875189	0	-0.381291	0	0	0	0	-2.20126	0
